<svg xmlns="http://www.w3.org/2000/svg" viewBox="0 0 51.11 68.83"><defs><style>.cls-1{fill:#8f65a6;}.cls-2{fill:#ffc02a;}</style></defs><title>flor</title><g id="Layer_2" data-name="Layer 2"><g id="Layer_22" data-name="Layer 22"><path class="cls-1" d="M9.75.07C3.14,1.66,4.67,10.73,2.81,15.67.44,21.94-1.36,28.46,1.38,35c.27.64,3.93,7.76,5.65,5.78,1.42-1.65-.56-.41-.24-1.85.4-1.76,1.76-2.66,2.14-4.56.64-3.12-1.25-9.54,4.4-10.13,1.91-.2,3.64.92,5.44,1.26a7.72,7.72,0,0,0,4.84-.55c2.15-.94,4-2.62,6.34-3.13A8.56,8.56,0,0,1,37.56,24q3.55,4.3.29,8.53c-.77,1.58-1.65,1.42-1.29,3.53.84,4.78,2.86,2.5,5.37,1.09q5.13-3.49,8.67,2.16a4.56,4.56,0,0,1-.81,3.67c.73-3.31-1.43,5.82-.71,2.69a4.5,4.5,0,0,0,.55,1.59q.32,6.3-4.67,7.36a12.38,12.38,0,0,1-6.94.51.15.15,0,0,0-.08.29,13,13,0,0,0,10.37-2.06,5.09,5.09,0,0,0,1.91-2.87c.45-1.89-.23-3.75.09-5.71-.21,1.31.78-3.16.79-3.31.13-2.57-1.07-5.1-3.72-5.79a7.38,7.38,0,0,0-5.6,1.21c-1.3.77-2.64,2.35-4.11.57s.76-4.3,1.31-5.88c1.06-3,.83-6-1.68-8.19-3.45-3-7.43-2.13-11.14-.2-2,1.05-3.57,2.24-6.1,2.17-1.53,0-2.95-.78-4.42-1.11a6.07,6.07,0,0,0-4,.06c-1.56.75-2.25,2.4-2.64,4a26.23,26.23,0,0,0-.27,3.19,16.17,16.17,0,0,1-2.21,5.93c.36-.69-1.41,2.65,0,1.63C2.62,42,.27,30.08.25,27.67c0-4.18,1.37-8.09,2.85-11.92C4.87,11.17,4,1.75,9.83.36c.18,0,.1-.33-.08-.29Z" transform="translate(0 -0.01)"/><path class="cls-1" d="M39.13,55.3c-2.3.09-8.1-4.08-6.49,1,1.11,3.47,2.46,4.06-.23,7.64a12.14,12.14,0,0,1-1.14,1.24c-3.35,3.23-5.8,4.31-10.19,2.49-3.42-1.43-4.51-5.07-3.88-8.42.2-1.09,1-2.14,1-3.3-.07-4.89-4.16-.47-5.88.83-1.19.9-4.55,3.3-6.28,2.36-1.26-.68-1.7-3.24-2.15-4.2-.16-.34-.55-.74-.68-1.1-.85-2.38-2.95-4.29-1.87-7,.71-1.83,2.92-3,3.85-4.49.77-1.24.66-.35.93-2,0-.19-.26-.27-.29-.08-.33,2-3.42,3.32-4.34,5.24A8.33,8.33,0,0,0,1,50.66c.36,1.45,1.25,2.32,1.8,3.67.47,1.14,0,3.21.85,4.27,1.35,1.65,4.81.68,6.35,0A13.83,13.83,0,0,0,12.54,57c1.6-1.22,1.26-1.94,3.48-.94,2.84,1.29.66,2.45.28,4.79-1.12,6.94,9.53,10.42,14,6.09,2.09-2,4.38-4.21,4.06-7.24-.17-1.66-2-3.85.68-4.77-.11,0,4.2.66,4.07.67.19,0,.19-.31,0-.3Z" transform="translate(0 -0.01)"/><path class="cls-1" d="M8.83.41c3.69-.78.36,5.12.09,5.91a13,13,0,0,0-.46,2.6,8.67,8.67,0,0,0,1,5.71C12.29,19.45,20,19.44,21.27,25c0,.19.33.11.29-.07-.63-2.86-1.27-3.47-3.92-4.76C12.45,17.69,7.32,14.46,9,7.67c.36-1.46,4.87-8.62-.2-7.55-.19,0-.11.33.08.29Z" transform="translate(0 -0.01)"/><path class="cls-1" d="M9.23,6.43c-4.86-1.32-4.4,3.87-4.74,7.22-.43,4.14-4.54,9.93-.8,13.6.14.13.35-.08.21-.21-3.44-3.37-.1-7.22.57-10.74.44-2.35,0-10.87,4.68-9.58a.15.15,0,0,0,.08-.29Z" transform="translate(0 -0.01)"/><path class="cls-1" d="M3.08,20.15c1.17,1.43.46,3.17.35,4.77A7.54,7.54,0,0,0,4,28.21a14.35,14.35,0,0,0,3.91,5.46c.14.13.36-.08.22-.22C5,30.62,3.5,27.61,4,23.43a4.34,4.34,0,0,0-.68-3.5c-.12-.15-.33.07-.21.22Z" transform="translate(0 -0.01)"/><path class="cls-1" d="M3.66,21.19c.07-1.34.82-2,1.21-3.19a10,10,0,0,0,.37-2.36c.16-2-.38-4.67.32-6.59.07-.18-.22-.26-.29-.08C4.64,10.7,5.1,13,5,14.78a11.9,11.9,0,0,1-1,4.4,5.31,5.31,0,0,0-.6,2c0,.19.28.19.3,0Z" transform="translate(0 -0.01)"/><path class="cls-1" d="M15.75,24.18c-2.46-.61-3.78,1.06-5,3A7.48,7.48,0,0,0,9.56,31c-.15,2.86,1.32,6.1-.37,8.73-.11.16.15.31.26.15,1-1.61.83-3.38.71-5.25-.14-2.28-.61-4.11.4-6.35.83-1.87,2.57-4.39,5.11-3.76a.15.15,0,0,0,.08-.29Z" transform="translate(0 -0.01)"/><path class="cls-1" d="M5.41,41.61a2.93,2.93,0,0,0,2.86-.75,22.81,22.81,0,0,0,2.08-2.52c2.13-2.18,4.9-2.79,7.85-2.91,4.08-.17,6.91,1.35,10.71,2.3,3,.76,6.19.18,9.28.73.19,0,.27-.26.08-.29-3.66-.65-6.91-.15-10.53-1.45a20.06,20.06,0,0,0-7.47-1.58,17.28,17.28,0,0,0-7,.88c-2.4,1-5.18,5.73-7.75,5.3-.19,0-.27.26-.08.29Z" transform="translate(0 -0.01)"/><path class="cls-1" d="M27.29,22.63c3,2.09.95,7.29-1.06,9.36-1.78,1.83-4.36,2.49-6.69,3.18a.15.15,0,0,0,.08.29c3.56-1.06,6.76-2.21,8.43-5.8,1.06-2.27,1.83-5.61-.61-7.29-.16-.11-.31.15-.15.26Z" transform="translate(0 -0.01)"/><path class="cls-1" d="M36.55,23c.69,1.06.55,3.38.37,4.58a7.35,7.35,0,0,1-3.43,4.89,16.9,16.9,0,0,1-9,3.26.15.15,0,0,0,0,.3,16.48,16.48,0,0,0,11-4.77,6.88,6.88,0,0,0,1.85-3.62c.18-1.31.31-3.6-.46-4.79-.11-.16-.37,0-.26.15Z" transform="translate(0 -0.01)"/><path class="cls-1" d="M50,38.06c.54,4.48-5.44,4.3-8.3,4.13-3.85-.23-6-1.94-8.39-4.69-.13-.14-.34.07-.22.21,1.23,1.41,2.26,2.9,4,3.74,2.37,1.16,5.25,1.19,7.82,1s5.8-1.16,5.41-4.4c0-.19-.32-.19-.3,0Z" transform="translate(0 -0.01)"/><path class="cls-1" d="M45.21,42.61a7.69,7.69,0,0,0,4.3-.88c1.26-.88,1.38-2.43,1.38-3.84a.15.15,0,0,0-.3,0c0,1.63-.23,3.28-1.94,4a9.55,9.55,0,0,1-3.44.47.15.15,0,0,0,0,.3Z" transform="translate(0 -0.01)"/><path class="cls-1" d="M32.17,38.25c2.92,1.49,3.46,5.31,6.78,6.65a32.63,32.63,0,0,0,10.54,2.56c.19,0,.19-.29,0-.3-3.62-.17-9.22-1.31-12.13-3.56-2-1.55-2.76-4.44-5-5.61-.17-.09-.32.17-.15.26Z" transform="translate(0 -0.01)"/><path class="cls-1" d="M45.85,47.28q3.42,3.86-1.81,5.58l-1.1.36c-1.8.61-4.57.89-6.35-.11A1.9,1.9,0,0,0,35.7,53L33.19,47c-.38-2.77.9.39.21-2.4-.77-3.16-3.89-3.3-6.48-4.08a.15.15,0,0,0-.08.29c.44.13,1.85.59,2.48.86,3.34,1.48,3.68,2,3.58,5.25,0,1.32-.56,2.22-.07,3.58,1,2.74,4.23,3.51,6.85,3.55s6.32-1,7.75-3.58c.91-1.67.49-3-1.5-3.5-.19,0-.27.25-.08.29Z" transform="translate(0 -0.01)"/><path class="cls-1" d="M30.92,42.15a5.18,5.18,0,0,1,3.3.1c.92.37,1.84.75,2.75,1.14.17.07.33-.19.15-.26-1.06-.45-2.13-1-3.21-1.34a5.27,5.27,0,0,0-3.07.07c-.19,0-.11.33.08.29Z" transform="translate(0 -0.01)"/><path class="cls-1" d="M34.17,39.82a6.45,6.45,0,0,1-2.52.23,12.47,12.47,0,0,1-2.1.22,11.58,11.58,0,0,1-2.07-.76,6.36,6.36,0,0,0-1.57-.11.15.15,0,0,0,0,.3c1.75,0,2.93,1,4.7.77,1.15-.13,2.65.15,3.71-.39.17-.09,0-.35-.15-.26Z" transform="translate(0 -0.01)"/><path class="cls-1" d="M30.21,37.92a18.58,18.58,0,0,1-5.1.51.15.15,0,0,0,0,.3,18.77,18.77,0,0,0,5.18-.52.15.15,0,0,0-.08-.29Z" transform="translate(0 -0.01)"/><path class="cls-1" d="M24.89,37.81c1-.05,2,.31,2.84-.44.14-.13-.07-.34-.21-.21-.71.66-1.76.3-2.63.35-.2,0-.2.32,0,.3Z" transform="translate(0 -0.01)"/><path class="cls-1" d="M23.2,35.88c1,2.39,2.75,4.58,4.1,6.79,1.55,2.55,3.06,5.11,4.59,7.66,1.19,2,1.86,3.54,4.08,4.4s5.14.83,7.52.89c.2,0,.2-.29,0-.3-2.48-.07-6.27.17-8.33-1.28s-3.77-5-5.14-7.29c-2.07-3.51-5-7.2-6.53-11-.07-.18-.36-.1-.29.08Z" transform="translate(0 -0.01)"/><path class="cls-1" d="M23.57,36a76,76,0,0,1,8.35,14.61c.07.17.33,0,.25-.15a75.25,75.25,0,0,0-8.34-14.62c-.12-.15-.38,0-.26.16Z" transform="translate(0 -0.01)"/><path class="cls-1" d="M30.86,42.3a8.46,8.46,0,0,1,.71,3.15c-.1,1.27-.41,2.51-.52,3.78,0,.2.29.19.3,0,.12-1.4.5-2.78.55-4.18,0-1.18-.45-1.74-.75-2.83a.15.15,0,0,0-.29.08Z" transform="translate(0 -0.01)"/><path class="cls-1" d="M29.78,42c0,.67,0,1.33.06,2a4.44,4.44,0,0,1-.28,1.65c-.07.19.22.27.29.08a3.7,3.7,0,0,0,.29-1.44c0-.77,0-1.53-.06-2.29a.15.15,0,0,0-.3,0Z" transform="translate(0 -0.01)"/><path class="cls-1" d="M29,41.52a9.66,9.66,0,0,1-.07,1.2,1.74,1.74,0,0,1-.39,1c-.11.16.15.31.26.15a3.71,3.71,0,0,0,.5-2.34.15.15,0,0,0-.3,0Z" transform="translate(0 -0.01)"/><path class="cls-1" d="M28.36,41.24a1.71,1.71,0,0,1-.42,1.14c-.12.15.09.36.21.21a2,2,0,0,0,.51-1.35c0-.19-.31-.19-.3,0Z" transform="translate(0 -0.01)"/><path class="cls-2" d="M20.15,35.23a39.69,39.69,0,0,1,3,8.3c.5,1.78,1,3.53,1.57,5.28.34,1,2.54,8.6.17,5.1-1.95-2.86-2.43-6.68-3.24-10-.71-2.89-2.65-5.73-2.85-8.72,0-.19-.31-.19-.3,0a18.78,18.78,0,0,0,1.44,4.87c1,2.62,1.5,5.21,2.3,7.88.5,1.67,1.45,7.42,3.84,7.74a.17.17,0,0,0,.13-.08c1.28-2.88-1.36-7.06-2.15-9.76-1-3.41-1.87-7.72-3.63-10.8-.09-.17-.35,0-.26.15Z" transform="translate(0 -0.01)"/><path class="cls-1" d="M15.45,35.59a27,27,0,0,1,3.68,8.22c.77,3.08,1.68,8.37.76,11.49a.15.15,0,1,0,.28.08c.9-3,.1-7.33-.48-10.43a26,26,0,0,0-4-9.51c-.1-.16-.36,0-.25.15Z" transform="translate(0 -0.01)"/><path class="cls-1" d="M19.91,55.09c0,2.84-2.88,10.45,1.79,11.24,2.25.37,3-1.11,3.93-2.85,1.36-2.62.63-5.56.48-8.37,0-.19-.31-.19-.3,0a48,48,0,0,1,.3,5.36c-.11,2.26-2.29,7.42-5.53,5.13-1.64-1.16-1.08-3.45-1-5.11.11-1.83.59-3.57.62-5.4a.15.15,0,0,0-.3,0Z" transform="translate(0 -0.01)"/><path class="cls-1" d="M17.82,65.37c2.52,1.45,3.31.79,6.23,1.13,1.22.13,2.32.66,3.51,0a2.82,2.82,0,0,0,.82-.77c1.43-1.51,2.05-3,3.9-4.26s2.19-1.75,2.58-4.07c0-.19-.25-.27-.29-.08-.49,3-3.44,4.43-5.31,6.61-.84,1-2.25,2.4-3.61,2.59A12.91,12.91,0,0,1,23,66c-1.76-.22-3.32.08-5-.89-.17-.09-.32.17-.15.26Z" transform="translate(0 -0.01)"/><path class="cls-1" d="M13.38,36.07c3.34,5.09,5.32,14.66.36,19.27-.14.13.07.34.21.21,5.15-4.79,3.1-14.43-.31-19.63-.11-.16-.37,0-.26.15Z" transform="translate(0 -0.01)"/><path class="cls-1" d="M16.69,46.64c-.5,5.63-6.24,11.46-11.84,11.67-.19,0-.19.31,0,.3,5.8-.22,11.63-6.15,12.14-12,0-.2-.29-.2-.3,0Z" transform="translate(0 -0.01)"/><path class="cls-1" d="M15.73,41.46a13,13,0,0,0-.46,3.12,6.64,6.64,0,0,1-2.47,4.75C10,51.85,6.14,54.08,2.19,53.15c-.19,0-.27.25-.08.29,3.48.82,6.92-.69,9.58-2.8,1.41-1.12,2.79-2,3.47-3.79s.21-3.66.86-5.31c.07-.18-.22-.26-.29-.08Z" transform="translate(0 -0.01)"/><path class="cls-1" d="M15.06,40.18c-.72,1.12-2,1.44-2.88,2.33a7.43,7.43,0,0,0-1.42,2.66C9.62,48,8.69,53.71,4.08,52.35,2,51.73-.1,48.74,2,46.78a12,12,0,0,1,2.41-1.33c2.35-1.21,5.15-1,7.54-2.2.17-.09,0-.35-.15-.26-2.11,1-4.44.86-6.57,1.7a12.68,12.68,0,0,0-3.86,2.18C.08,48.29,1,51.25,2.49,52.17a5.17,5.17,0,0,0,6.74-1.7c1.16-1.72,1.16-4.17,2.16-6,1.15-2.14,2.79-2.34,3.93-4.11.1-.16-.16-.31-.26-.15Z" transform="translate(0 -0.01)"/><path class="cls-1" d="M9.6,49.34C7.82,50.69,4.15,53,2.07,51c-.14-.14-.35.08-.22.21,2.21,2.17,6-.13,7.9-1.56.16-.12,0-.38-.15-.26Z" transform="translate(0 -0.01)"/><path class="cls-1" d="M2.29,46.33c.82-3.67,5.71-3.26,8.39-4A7.73,7.73,0,0,0,14.91,39c.12-.15-.14-.3-.26-.15a7.72,7.72,0,0,1-6.08,3.46,7.15,7.15,0,0,0-2.94.5c-1.36.64-3.28,1.84-3.63,3.42,0,.19.25.27.29.08Z" transform="translate(0 -0.01)"/><path class="cls-1" d="M14.36,38.69a6.49,6.49,0,0,1-1.21,1.13,3.41,3.41,0,0,1-1.61.25l-3.14,0a.15.15,0,0,0,0,.3,24.15,24.15,0,0,0,4.17-.08,4,4,0,0,0,2-1.43c.14-.14-.08-.35-.22-.21Z" transform="translate(0 -0.01)"/><path class="cls-1" d="M10,38.87c1.37.56,3.16.7,4.25-.47.14-.14-.08-.35-.21-.21-1,1.09-2.7.91-4,.4-.18-.08-.26.21-.08.28Z" transform="translate(0 -0.01)"/><path class="cls-1" d="M11.1,37.9a3.61,3.61,0,0,0,2.88.32c.19,0,.11-.32-.08-.29a3.26,3.26,0,0,1-2.65-.29c-.16-.11-.31.15-.15.26Z" transform="translate(0 -0.01)"/><path class="cls-1" d="M13,42.14c-1.62,2.87.2,6.32-2.31,8.87-.13.14.08.35.21.21a6,6,0,0,0,1.64-3.44c.29-2-.33-3.62.72-5.49a.15.15,0,0,0-.26-.15Z" transform="translate(0 -0.01)"/><path class="cls-1" d="M13.63,41.77a3,3,0,0,0-.58,2.38c.3,1.46,1.31,2.66,1,4.25,0,.19.25.27.29.08.52-2.39-1.87-4.31-.42-6.56.11-.16-.15-.31-.25-.15Z" transform="translate(0 -0.01)"/><path class="cls-1" d="M14,41.7c.22.42,0,.91.26,1.32a3.25,3.25,0,0,0,1.1.88.15.15,0,0,0,.15-.26c-.47-.26-1.11-.64-1.13-1.23a1.92,1.92,0,0,0-.12-.86c-.09-.17-.35,0-.26.15Z" transform="translate(0 -0.01)"/><path class="cls-1" d="M14.33,41.1a2,2,0,0,0,1,1.15c.16.11.31-.15.15-.26a1.65,1.65,0,0,1-.83-1,.15.15,0,0,0-.29.08Z" transform="translate(0 -0.01)"/><path class="cls-1" d="M7.67,6.44c-.61,3.13-1.56,6.86-1,10s3.57,5.47,5.59,7.77c.12.15.34-.07.21-.21C10,21.3,7.06,19.18,6.89,15.22A38.64,38.64,0,0,1,8,6.52c0-.19-.25-.27-.28-.08Z" transform="translate(0 -0.01)"/><path class="cls-1" d="M15.13,19.39a12.42,12.42,0,0,1,3.29,5.82c0,.19.33.11.29-.08a12.79,12.79,0,0,0-3.37-6c-.13-.14-.34.07-.21.22Z" transform="translate(0 -0.01)"/><path class="cls-2" d="M19.94,36.89a5.13,5.13,0,0,1,1.56-.57c.09,0,.05-.16,0-.14a5.23,5.23,0,0,0-1.59.58c-.08.05,0,.18.07.13Z" transform="translate(0 -0.01)"/><path class="cls-2" d="M20.6,37.17c.42-.21.9-.13,1.31-.34.09,0,0-.17-.07-.13-.41.21-.9.13-1.31.34a.07.07,0,1,0,.07.13Z" transform="translate(0 -0.01)"/><path class="cls-2" d="M20.87,38.12c.31-.07.6-.21.91-.31.09,0,0-.18,0-.15-.31.1-.6.24-.91.32-.1,0-.06.16,0,.14Z" transform="translate(0 -0.01)"/><path class="cls-2" d="M21.1,38.86a20.45,20.45,0,0,1,2.35-.51.08.08,0,0,0,0-.15,19.58,19.58,0,0,0-2.39.52c-.1,0-.06.16,0,.14Z" transform="translate(0 -0.01)"/><path class="cls-2" d="M21.21,39.72c.47-.07.91-.24,1.37-.34.09,0,.06-.17,0-.15-.46.11-.9.28-1.37.35-.09,0-.05.15,0,.14Z" transform="translate(0 -0.01)"/><path class="cls-2" d="M21.48,40.24A5.11,5.11,0,0,0,22.81,40a.08.08,0,0,0,0-.15,4.91,4.91,0,0,1-1.29.29c-.1,0-.1.14,0,.15Z" transform="translate(0 -0.01)"/><path class="cls-2" d="M21.47,40.86a4.27,4.27,0,0,0,1.41-.55c.09,0,0-.17-.07-.13a4.56,4.56,0,0,1-1.38.54c-.1,0-.06.16,0,.14Z" transform="translate(0 -0.01)"/><path class="cls-2" d="M21.81,41.72a10.26,10.26,0,0,0,1.93-.67c.09,0,0-.17-.08-.13a9.59,9.59,0,0,1-1.89.65.08.08,0,0,0,0,.15Z" transform="translate(0 -0.01)"/><path class="cls-2" d="M22.25,42.23c.69,0,1.36-.17,2.05-.17a.08.08,0,0,0,0-.15c-.69,0-1.36.18-2.05.17a.08.08,0,0,0,0,.15Z" transform="translate(0 -0.01)"/><path class="cls-2" d="M22,43a4.79,4.79,0,0,0,2-.31c.09,0,0-.17,0-.15a4.62,4.62,0,0,1-1.93.32c-.1,0-.14.12,0,.14Z" transform="translate(0 -0.01)"/><path class="cls-2" d="M22.62,43.75a8,8,0,0,0,2-.72c.09,0,.05-.17,0-.14a8.15,8.15,0,0,1-1.95.71.07.07,0,1,0,0,.15Z" transform="translate(0 -0.01)"/><path class="cls-2" d="M22.83,44.48c.41-.21.89-.15,1.31-.34.09,0,0-.17-.08-.13-.42.19-.89.13-1.31.34-.08,0,0,.17.08.13Z" transform="translate(0 -0.01)"/><path class="cls-2" d="M23.13,45a4.77,4.77,0,0,0,1.32-.44c.09,0,0-.16-.07-.13a4.29,4.29,0,0,1-1.25.42c-.09,0-.09.16,0,.15Z" transform="translate(0 -0.01)"/><path class="cls-2" d="M23.33,45.86a5.57,5.57,0,0,0,1.75-.67c.09,0,0-.17-.07-.13a5.48,5.48,0,0,1-1.68.65c-.09,0-.09.16,0,.15Z" transform="translate(0 -0.01)"/><path class="cls-2" d="M23.56,46.74a4.2,4.2,0,0,0,1.21-.29c.09,0,0-.17-.08-.13a3.4,3.4,0,0,1-1.13.27c-.1,0-.1.16,0,.15Z" transform="translate(0 -0.01)"/><path class="cls-2" d="M24,47.17a2.41,2.41,0,0,0,1.57-.29c.09,0,0-.17-.08-.13A2.24,2.24,0,0,1,24,47a.08.08,0,0,0,0,.15Z" transform="translate(0 -0.01)"/><path class="cls-2" d="M23.79,48A6,6,0,0,0,25.06,48c.1,0,.06-.16,0-.15a5.64,5.64,0,0,1-1.23.06.07.07,0,1,0,0,.15Z" transform="translate(0 -0.01)"/><path class="cls-2" d="M24.1,48.57a7.17,7.17,0,0,0,2.31-.6c.08,0,0-.18,0-.15a6.94,6.94,0,0,1-2.27.6.08.08,0,0,0,0,.15Z" transform="translate(0 -0.01)"/><path class="cls-2" d="M24.6,49.59l.91-.4c.09,0,0-.17-.08-.13-.29.14-.6.26-.91.4-.09,0,0,.17.08.13Z" transform="translate(0 -0.01)"/><path class="cls-2" d="M24.73,50.89c.47-.43,1.13-.61,1.49-1.16.06-.08-.07-.15-.13-.07-.35.52-1,.71-1.47,1.12-.07.07,0,.17.11.11Z" transform="translate(0 -0.01)"/><path class="cls-2" d="M25.08,51a7.15,7.15,0,0,1,1.9-.4c.09,0,.05-.16,0-.14a6.92,6.92,0,0,0-1.93.41c-.09,0,0,.17.07.13Z" transform="translate(0 -0.01)"/><path class="cls-2" d="M25.36,51.77a6,6,0,0,0,1.27-.23.08.08,0,0,0,0-.15,5.68,5.68,0,0,1-1.23.23.07.07,0,1,0,0,.15Z" transform="translate(0 -0.01)"/><path class="cls-2" d="M25.77,52.13a1.38,1.38,0,0,0,.83,0,.07.07,0,1,0,0-.14,1.4,1.4,0,0,1-.76,0,.07.07,0,1,0,0,.14Z" transform="translate(0 -0.01)"/><path class="cls-2" d="M25.74,51.78A5.42,5.42,0,0,1,27,51.39a.07.07,0,1,0,0-.14,5.3,5.3,0,0,0-1.3.4c-.08.06,0,.19.08.13Z" transform="translate(0 -0.01)"/><path class="cls-2" d="M25.62,52.56a3.88,3.88,0,0,0,1,0,.07.07,0,1,0,0-.15,4,4,0,0,1-1,0c-.09,0-.13.12,0,.14Z" transform="translate(0 -0.01)"/><path class="cls-2" d="M25.68,53.5a4.31,4.31,0,0,0,1.19.06.08.08,0,0,0,0-.15,4,4,0,0,1-1.15,0c-.09,0-.13.12,0,.14Z" transform="translate(0 -0.01)"/><path class="cls-2" d="M25.79,53.94c.38,0,.73.19,1.11.22.1,0,.09-.14,0-.15-.38,0-.73-.18-1.11-.22-.1,0-.1.13,0,.15Z" transform="translate(0 -0.01)"/><path class="cls-2" d="M25.81,54.38c.57.39,1.16.76,1.74,1.14.08.06.15-.07.07-.13l-1.74-1.14c-.08,0-.15.08-.07.13Z" transform="translate(0 -0.01)"/><path class="cls-2" d="M25.82,54.85a5.75,5.75,0,0,0,1,.93c.08.06.16-.07.08-.13a5.45,5.45,0,0,1-1-.9c-.06-.08-.16,0-.1.1Z" transform="translate(0 -0.01)"/><path class="cls-2" d="M25.25,55.08c.38.38.77.76,1.17,1.12.07.06.18-.05.1-.11-.4-.36-.78-.74-1.17-1.11-.07-.07-.17,0-.1.1Z" transform="translate(0 -0.01)"/><path class="cls-2" d="M26.06,54.18a10.46,10.46,0,0,1,1.26,2c0,.09.17,0,.13-.07a10.15,10.15,0,0,0-1.26-2c-.05-.08-.18,0-.13.07Z" transform="translate(0 -0.01)"/><path class="cls-2" d="M25.48,54.37a5.19,5.19,0,0,0,.33,2.35c0,.09.17,0,.13-.07a5.18,5.18,0,0,1-.31-2.28.08.08,0,0,0-.15,0Z" transform="translate(0 -0.01)"/><path class="cls-2" d="M25.46,54.19a7,7,0,0,1-.31.68,5.27,5.27,0,0,0-.4.64c0,.08.09.16.13.07a3.73,3.73,0,0,1,.4-.63c.13-.22.2-.46.31-.68a.08.08,0,0,0-.13-.08Z" transform="translate(0 -0.01)"/><path class="cls-2" d="M25.22,53.78c-.5.51-1.09.92-1.54,1.48-.06.08,0,.18.1.11.45-.56,1-1,1.55-1.49.06-.06,0-.17-.11-.1Z" transform="translate(0 -0.01)"/><path class="cls-2" d="M24.62,53.64a9.64,9.64,0,0,1-.84.58c-.08.06,0,.19.07.13a7.66,7.66,0,0,0,.88-.61c.07-.06,0-.17-.11-.1Z" transform="translate(0 -0.01)"/><path class="cls-2" d="M24.52,53.05c-.5.33-1,.58-1.57.86-.08.05,0,.17.08.13.52-.28,1.06-.54,1.57-.86.08,0,0-.18-.08-.13Z" transform="translate(0 -0.01)"/><path class="cls-2" d="M24.18,52.23a5.5,5.5,0,0,0-1.33,1.06c-.06.08,0,.19.11.11a5.17,5.17,0,0,1,1.29-1c.08-.06,0-.19-.07-.13Z" transform="translate(0 -0.01)"/><path class="cls-2" d="M24,51.88a6.16,6.16,0,0,1-1.12.22c-.09,0-.05.17,0,.15A7.18,7.18,0,0,0,24,52c.09,0,.05-.18,0-.14Z" transform="translate(0 -0.01)"/><path class="cls-2" d="M24.05,50.85c-.51,0-1,0-1.52,0a.08.08,0,0,0,0,.15c.51,0,1,0,1.52,0,.09,0,.09-.16,0-.15Z" transform="translate(0 -0.01)"/><path class="cls-2" d="M23.74,49.91a3.94,3.94,0,0,1-1.41.14.08.08,0,0,0,0,.15,3.92,3.92,0,0,0,1.45-.15c.09,0,0-.18,0-.14Z" transform="translate(0 -0.01)"/><path class="cls-2" d="M23.74,51.28c-.54.12-1.09.12-1.64.19-.09,0-.09.17,0,.15a15.71,15.71,0,0,0,1.68-.2c.09,0,0-.16,0-.14Z" transform="translate(0 -0.01)"/><path class="cls-2" d="M23.34,50.25c-.4.16-.82.26-1.22.43-.08,0,0,.17.08.13.38-.16.79-.26,1.18-.42.09,0,.05-.18,0-.14Z" transform="translate(0 -0.01)"/><path class="cls-2" d="M23.72,49.09a5.8,5.8,0,0,1-1.9.73.08.08,0,1,0,0,.15,6,6,0,0,0,2-.75c.09,0,0-.17-.08-.13Z" transform="translate(0 -0.01)"/><path class="cls-2" d="M22.82,49a5.19,5.19,0,0,1-1-.06c-.09,0-.13.13,0,.15a5.55,5.55,0,0,0,1.08.06.08.08,0,0,0,0-.15Z" transform="translate(0 -0.01)"/><path class="cls-2" d="M23.07,48.22A4.62,4.62,0,0,0,21,48.4c-.09,0,0,.17.08.13a4.55,4.55,0,0,1,2-.16.07.07,0,0,0,0-.15Z" transform="translate(0 -0.01)"/><path class="cls-2" d="M22.47,47.52a13,13,0,0,0-1.2.71c-.08.06,0,.19.07.13.38-.28.81-.47,1.2-.71.08,0,0-.18-.07-.13Z" transform="translate(0 -0.01)"/><path class="cls-2" d="M22.48,47.08a5.25,5.25,0,0,1-1.57.34.08.08,0,1,0,0,.15,5.58,5.58,0,0,0,1.61-.34c.09,0,.06-.18,0-.15Z" transform="translate(0 -0.01)"/><path class="cls-2" d="M22.25,46.62a4.8,4.8,0,0,1-1.07,0c-.09,0-.13.12,0,.14a5.14,5.14,0,0,0,1.11.06.08.08,0,0,0,0-.15Z" transform="translate(0 -0.01)"/><path class="cls-2" d="M22.34,46a9.06,9.06,0,0,1-1.15.25c-.1,0-.1.16,0,.15a10.13,10.13,0,0,0,1.19-.26c.1,0,.06-.16,0-.14Z" transform="translate(0 -0.01)"/><path class="cls-2" d="M22.42,45.45a9.17,9.17,0,0,0-1.17.06c-.1,0-.1.16,0,.15a9.17,9.17,0,0,1,1.17-.06.08.08,0,0,0,0-.15Z" transform="translate(0 -0.01)"/><path class="cls-2" d="M22.15,45a6.94,6.94,0,0,0-1.93,0c-.09,0-.1.17,0,.15a7,7,0,0,1,1.89,0c.1,0,.14-.13,0-.14Z" transform="translate(0 -0.01)"/><path class="cls-2" d="M21.59,44.34c-.31,0-.6.12-.91.14-.1,0-.1.16,0,.15.31,0,.6-.13.91-.14.1,0,.1-.16,0-.15Z" transform="translate(0 -0.01)"/><path class="cls-2" d="M21.7,43.82c-.39,0-.77,0-1.17,0a.08.08,0,0,0,0,.15c.4,0,.78,0,1.17,0a.08.08,0,0,0,0-.15Z" transform="translate(0 -0.01)"/><path class="cls-2" d="M21.49,43.21a3.23,3.23,0,0,0-1.77-.07c-.1,0-.06.16,0,.15a3,3,0,0,1,1.65.05c.09,0,.16-.1.08-.13Z" transform="translate(0 -0.01)"/><path class="cls-2" d="M21.1,42.29a5.57,5.57,0,0,1-.75.52c-.08,0,0,.18.08.13a6.17,6.17,0,0,0,.74-.52c.08-.05,0-.18-.07-.13Z" transform="translate(0 -0.01)"/><path class="cls-2" d="M21.21,41.78a9.81,9.81,0,0,1-1.15.51c-.09,0,0,.18,0,.14a8.94,8.94,0,0,0,1.19-.52c.08,0,0-.18-.08-.13Z" transform="translate(0 -0.01)"/><path class="cls-2" d="M21,41.43a2.37,2.37,0,0,0-1.74.12c-.08.05,0,.18.07.13A2.29,2.29,0,0,1,21,41.57c.09,0,.13-.12,0-.14Z" transform="translate(0 -0.01)"/><path class="cls-2" d="M20.79,40.8A4.71,4.71,0,0,0,19.4,41a.08.08,0,0,0,0,.15A4.5,4.5,0,0,1,20.79,41a.07.07,0,1,0,0-.15Z" transform="translate(0 -0.01)"/><path class="cls-2" d="M20.11,40.37c-.45.05-.89.16-1.34.23-.09,0-.05.16,0,.15.44-.07.86-.18,1.3-.23.09,0,.09-.16,0-.15Z" transform="translate(0 -0.01)"/><path class="cls-2" d="M20.2,40a6.24,6.24,0,0,1-.75.16c-.09,0-.1.17,0,.15a5.29,5.29,0,0,0,.79-.17c.09,0,.05-.17,0-.14Z" transform="translate(0 -0.01)"/><path class="cls-2" d="M20.62,39.32a3.79,3.79,0,0,0-.88.11c-.09,0,0,.17,0,.15a3.4,3.4,0,0,1,.84-.11c.1,0,.1-.16,0-.15Z" transform="translate(0 -0.01)"/><path class="cls-2" d="M19.93,38.58a1.51,1.51,0,0,0-.9.2c-.09,0-.05.17,0,.14a1.47,1.47,0,0,1,.82-.2c.09,0,.13-.13,0-.14Z" transform="translate(0 -0.01)"/><path class="cls-2" d="M19.79,38.12a6.22,6.22,0,0,0-1.36.09c-.09,0-.05.16,0,.14a6.51,6.51,0,0,1,1.32-.08.07.07,0,1,0,0-.15Z" transform="translate(0 -0.01)"/><path class="cls-2" d="M20,37.4a10.47,10.47,0,0,0-1.37.06c-.09,0-.09.16,0,.15A10.47,10.47,0,0,1,20,37.55a.08.08,0,0,0,0-.15Z" transform="translate(0 -0.01)"/><path class="cls-2" d="M19.22,36.8a7.58,7.58,0,0,1-.83,0,.08.08,0,0,0,0,.15,7.58,7.58,0,0,0,.83,0c.1,0,.1-.16,0-.15Z" transform="translate(0 -0.01)"/><path class="cls-2" d="M19.28,36.32a4.83,4.83,0,0,0-1.13.17.08.08,0,0,0,0,.15,4,4,0,0,1,1.09-.17.07.07,0,1,0,0-.15Z" transform="translate(0 -0.01)"/><path class="cls-2" d="M19.12,36.63c-.08.45-.47.75-.7,1.12a.07.07,0,1,0,.12.08c.25-.39.64-.69.73-1.16,0-.09-.13-.13-.15,0Z" transform="translate(0 -0.01)"/><path class="cls-2" d="M19.84,37.67c-.45.29-.93.52-1.37.83-.08,0,0,.18.08.13.44-.31.92-.54,1.37-.83.08,0,0-.18-.08-.13Z" transform="translate(0 -0.01)"/><path class="cls-2" d="M19.87,38.5a14.61,14.61,0,0,0-1.26.77c-.07,0,0,.18.08.13.4-.29.83-.52,1.25-.77a.07.07,0,1,0-.07-.13Z" transform="translate(0 -0.01)"/><path class="cls-2" d="M20.38,39.14a2.54,2.54,0,0,1-.6,1c-.05.08.08.15.13.08a2.59,2.59,0,0,0,.61-1.08c0-.09-.13-.13-.14,0Z" transform="translate(0 -0.01)"/><path class="cls-2" d="M20.86,40.1a1.81,1.81,0,0,0,.65.94c.07.06.18,0,.11-.1a1.69,1.69,0,0,1-.61-.88.08.08,0,0,0-.15,0Z" transform="translate(0 -0.01)"/><path class="cls-2" d="M21.8,41.85c-.14.36-.43.62-.57,1,0,.09.11.13.15,0,.14-.35.43-.61.57-1,0-.09-.11-.13-.15,0Z" transform="translate(0 -0.01)"/><path class="cls-2" d="M21.84,43.37c.26.16.53.33.8.48a.07.07,0,1,0,.07-.13c-.27-.15-.53-.32-.8-.48-.08-.05-.15.08-.07.13Z" transform="translate(0 -0.01)"/><path class="cls-2" d="M22.9,44.66a9.05,9.05,0,0,1-.75.89c0,.07.08.15.13.07.23-.32.55-.54.75-.88,0-.09-.09-.16-.13-.08Z" transform="translate(0 -0.01)"/><path class="cls-2" d="M22.24,44.65a3.59,3.59,0,0,0,.17.34.07.07,0,1,0,.13-.07l-.17-.34c0-.09-.17,0-.13.07Z" transform="translate(0 -0.01)"/><path class="cls-2" d="M23.15,45.65c-.13.31-.22.62-.32.94,0,.09.12.13.15,0a8,8,0,0,1,.31-.94c0-.09-.11-.13-.14,0Z" transform="translate(0 -0.01)"/><path class="cls-2" d="M23,47.33a12.93,12.93,0,0,1,.74,1.23c.05.08.18,0,.13-.07a10.83,10.83,0,0,0-.74-1.23c-.06-.08-.19,0-.13.07Z" transform="translate(0 -0.01)"/><path class="cls-2" d="M23.83,47.39a6.85,6.85,0,0,1-.36.84c0,.09.09.16.13.07a6.68,6.68,0,0,0,.37-.87c0-.09-.11-.13-.14,0Z" transform="translate(0 -0.01)"/><path class="cls-2" d="M23.3,49.79a2.82,2.82,0,0,0,.94.77c.08,0,.15-.08.07-.13a2.69,2.69,0,0,1-.89-.72c-.05-.08-.18,0-.12.08Z" transform="translate(0 -0.01)"/><path class="cls-2" d="M24.08,49.32a5.45,5.45,0,0,0,0,1c0,.1.16.06.14,0a6,6,0,0,1,0-1,.08.08,0,0,0-.15,0Z" transform="translate(0 -0.01)"/><path class="cls-2" d="M24,51.56a3.2,3.2,0,0,0,.77.42c.08,0,.16-.09.07-.13a3.4,3.4,0,0,1-.77-.42c-.08-.06-.15.07-.07.13Z" transform="translate(0 -0.01)"/><path class="cls-2" d="M25,51.58c0,.3-.12.58-.15.88,0,.1.14.1.15,0,0-.3.12-.58.15-.88,0-.1-.14-.1-.15,0Z" transform="translate(0 -0.01)"/><path class="cls-2" d="M24.86,53.18a2.16,2.16,0,0,0,.37.37c.08.06.16-.07.08-.13L25,53.11c0-.08-.18,0-.13.07Z" transform="translate(0 -0.01)"/><path class="cls-2" d="M25.23,52.66a.63.63,0,0,1-.21.52c-.06.07,0,.18.11.11a.93.93,0,0,0,.25-.63.07.07,0,1,0-.15,0Z" transform="translate(0 -0.01)"/><path class="cls-2" d="M25.48,54.37a1.3,1.3,0,0,0,.71.3.07.07,0,1,0,0-.14,1.24,1.24,0,0,1-.65-.27c-.07-.06-.18,0-.1.11Z" transform="translate(0 -0.01)"/></g></g></svg>